<?xml version="1.0" encoding="UTF-8" standalone="no"?><svg xmlns="http://www.w3.org/2000/svg" xmlns:xlink="http://www.w3.org/1999/xlink" contentScriptType="application/ecmascript" contentStyleType="text/css" height="1159px" preserveAspectRatio="none" style="width:1708px;height:1159px;" version="1.1" viewBox="0 0 1708 1159" width="1708px" zoomAndPan="magnify"><defs><filter height="300%" id="fvi27rs8jsxwq" width="300%" x="-1" y="-1"><feGaussianBlur result="blurOut" stdDeviation="2.0"/><feColorMatrix in="blurOut" result="blurOut2" type="matrix" values="0 0 0 0 0 0 0 0 0 0 0 0 0 0 0 0 0 0 .4 0"/><feOffset dx="4.0" dy="4.0" in="blurOut2" result="blurOut3"/><feBlend in="SourceGraphic" in2="blurOut3" mode="normal"/></filter></defs><g><rect fill="#FFFFFF" filter="url(#fvi27rs8jsxwq)" height="140.2632" style="stroke: #A80036; stroke-width: 1.0;" width="10" x="98" y="51.1201"/><rect fill="#FFFFFF" filter="url(#fvi27rs8jsxwq)" height="91.7544" style="stroke: #A80036; stroke-width: 1.0;" width="10" x="246" y="161.3833"/><rect fill="#FFFFFF" filter="url(#fvi27rs8jsxwq)" height="91.7544" style="stroke: #A80036; stroke-width: 1.0;" width="10" x="246" y="962.208"/><rect fill="#FFFFFF" filter="url(#fvi27rs8jsxwq)" height="96.7544" style="stroke: #A80036; stroke-width: 1.0;" width="10" x="372.5" y="223.1377"/><rect fill="#FFFFFF" filter="url(#fvi27rs8jsxwq)" height="141.5088" style="stroke: #A80036; stroke-width: 1.0;" width="10" x="524" y="289.8921"/><rect fill="#FFFFFF" filter="url(#fvi27rs8jsxwq)" height="447.5439" style="stroke: #A80036; stroke-width: 1.0;" width="10" x="673" y="401.4009"/><rect fill="#FFFFFF" filter="url(#fvi27rs8jsxwq)" height="251.5264" style="stroke: #A80036; stroke-width: 1.0;" width="10" x="934" y="597.4185"/><rect fill="#FFFFFF" filter="url(#fvi27rs8jsxwq)" height="76.5088" style="stroke: #A80036; stroke-width: 1.0;" width="10" x="1176" y="660.9272"/><rect fill="#FFFFFF" filter="url(#fvi27rs8jsxwq)" height="173.2632" style="stroke: #A80036; stroke-width: 1.0;" width="10" x="1376" y="818.9448"/><rect fill="#FFFFFF" filter="url(#fvi27rs8jsxwq)" height="61.7544" style="stroke: #A80036; stroke-width: 1.0;" width="10" x="1532" y="930.4536"/><rect fill="#FFFFFF" filter="url(#fvi27rs8jsxwq)" height="67.7544" style="stroke: #A80036; stroke-width: 1.0;" width="10" x="1627" y="1023.9624"/><line style="stroke: #A80036; stroke-width: 1.0; stroke-dasharray: 5.0,5.0;" x1="103" x2="103" y1="41.1201" y2="1116.7168"/><line style="stroke: #A80036; stroke-width: 1.0; stroke-dasharray: 5.0,5.0;" x1="250.5" x2="250.5" y1="41.1201" y2="1116.7168"/><line style="stroke: #A80036; stroke-width: 1.0; stroke-dasharray: 5.0,5.0;" x1="377.5" x2="377.5" y1="41.1201" y2="1116.7168"/><line style="stroke: #A80036; stroke-width: 1.0; stroke-dasharray: 5.0,5.0;" x1="528.5" x2="528.5" y1="41.1201" y2="1116.7168"/><line style="stroke: #A80036; stroke-width: 1.0; stroke-dasharray: 5.0,5.0;" x1="677.5" x2="677.5" y1="41.1201" y2="1116.7168"/><line style="stroke: #A80036; stroke-width: 1.0; stroke-dasharray: 5.0,5.0;" x1="938.5" x2="938.5" y1="41.1201" y2="1116.7168"/><line style="stroke: #A80036; stroke-width: 1.0; stroke-dasharray: 5.0,5.0;" x1="1180.5" x2="1180.5" y1="41.1201" y2="1116.7168"/><line style="stroke: #A80036; stroke-width: 1.0; stroke-dasharray: 5.0,5.0;" x1="1380.5" x2="1380.5" y1="41.1201" y2="1116.7168"/><line style="stroke: #A80036; stroke-width: 1.0; stroke-dasharray: 5.0,5.0;" x1="1537" x2="1537" y1="41.1201" y2="1116.7168"/><line style="stroke: #A80036; stroke-width: 1.0; stroke-dasharray: 5.0,5.0;" x1="1632" x2="1632" y1="41.1201" y2="1116.7168"/><rect fill="#FEFECE" filter="url(#fvi27rs8jsxwq)" height="33.1201" style="stroke: #A80036; stroke-width: 1.5;" width="118" x="42" y="3"/><text fill="#000000" font-family="sans-serif" font-size="14" lengthAdjust="spacingAndGlyphs" textLength="104" x="49" y="26.0439">LauncherActivity</text><rect fill="#FEFECE" filter="url(#fvi27rs8jsxwq)" height="33.1201" style="stroke: #A80036; stroke-width: 1.5;" width="118" x="42" y="1115.7168"/><text fill="#000000" font-family="sans-serif" font-size="14" lengthAdjust="spacingAndGlyphs" textLength="104" x="49" y="1138.7607">LauncherActivity</text><rect fill="#FEFECE" filter="url(#fvi27rs8jsxwq)" height="33.1201" style="stroke: #A80036; stroke-width: 1.5;" width="111" x="193.5" y="3"/><text fill="#000000" font-family="sans-serif" font-size="14" lengthAdjust="spacingAndGlyphs" textLength="97" x="200.5" y="26.0439">Instrumentation</text><rect fill="#FEFECE" filter="url(#fvi27rs8jsxwq)" height="33.1201" style="stroke: #A80036; stroke-width: 1.5;" width="111" x="193.5" y="1115.7168"/><text fill="#000000" font-family="sans-serif" font-size="14" lengthAdjust="spacingAndGlyphs" textLength="97" x="200.5" y="1138.7607">Instrumentation</text><rect fill="#FEFECE" filter="url(#fvi27rs8jsxwq)" height="33.1201" style="stroke: #A80036; stroke-width: 1.5;" width="114" x="318.5" y="3"/><text fill="#000000" font-family="sans-serif" font-size="14" lengthAdjust="spacingAndGlyphs" textLength="100" x="325.5" y="26.0439">ActivityManager</text><rect fill="#FEFECE" filter="url(#fvi27rs8jsxwq)" height="33.1201" style="stroke: #A80036; stroke-width: 1.5;" width="114" x="318.5" y="1115.7168"/><text fill="#000000" font-family="sans-serif" font-size="14" lengthAdjust="spacingAndGlyphs" textLength="100" x="325.5" y="1138.7607">ActivityManager</text><rect fill="#FEFECE" filter="url(#fvi27rs8jsxwq)" height="33.1201" style="stroke: #A80036; stroke-width: 1.5;" width="161" x="446.5" y="3"/><text fill="#000000" font-family="sans-serif" font-size="14" lengthAdjust="spacingAndGlyphs" textLength="147" x="453.5" y="26.0439">ActivityManagerService</text><rect fill="#FEFECE" filter="url(#fvi27rs8jsxwq)" height="33.1201" style="stroke: #A80036; stroke-width: 1.5;" width="161" x="446.5" y="1115.7168"/><text fill="#000000" font-family="sans-serif" font-size="14" lengthAdjust="spacingAndGlyphs" textLength="147" x="453.5" y="1138.7607">ActivityManagerService</text><rect fill="#FEFECE" filter="url(#fvi27rs8jsxwq)" height="33.1201" style="stroke: #A80036; stroke-width: 1.5;" width="101" x="625.5" y="3"/><text fill="#000000" font-family="sans-serif" font-size="14" lengthAdjust="spacingAndGlyphs" textLength="87" x="632.5" y="26.0439">ActivityStarter</text><rect fill="#FEFECE" filter="url(#fvi27rs8jsxwq)" height="33.1201" style="stroke: #A80036; stroke-width: 1.5;" width="101" x="625.5" y="1115.7168"/><text fill="#000000" font-family="sans-serif" font-size="14" lengthAdjust="spacingAndGlyphs" textLength="87" x="632.5" y="1138.7607">ActivityStarter</text><rect fill="#FEFECE" filter="url(#fvi27rs8jsxwq)" height="33.1201" style="stroke: #A80036; stroke-width: 1.5;" width="161" x="856.5" y="3"/><text fill="#000000" font-family="sans-serif" font-size="14" lengthAdjust="spacingAndGlyphs" textLength="147" x="863.5" y="26.0439">ActivityStackSupervisor</text><rect fill="#FEFECE" filter="url(#fvi27rs8jsxwq)" height="33.1201" style="stroke: #A80036; stroke-width: 1.5;" width="161" x="856.5" y="1115.7168"/><text fill="#000000" font-family="sans-serif" font-size="14" lengthAdjust="spacingAndGlyphs" textLength="147" x="863.5" y="1138.7607">ActivityStackSupervisor</text><rect fill="#FEFECE" filter="url(#fvi27rs8jsxwq)" height="33.1201" style="stroke: #A80036; stroke-width: 1.5;" width="93" x="1132.5" y="3"/><text fill="#000000" font-family="sans-serif" font-size="14" lengthAdjust="spacingAndGlyphs" textLength="79" x="1139.5" y="26.0439">ActivityStack</text><rect fill="#FEFECE" filter="url(#fvi27rs8jsxwq)" height="33.1201" style="stroke: #A80036; stroke-width: 1.5;" width="93" x="1132.5" y="1115.7168"/><text fill="#000000" font-family="sans-serif" font-size="14" lengthAdjust="spacingAndGlyphs" textLength="79" x="1139.5" y="1138.7607">ActivityStack</text><rect fill="#FEFECE" filter="url(#fvi27rs8jsxwq)" height="33.1201" style="stroke: #A80036; stroke-width: 1.5;" width="129" x="1314.5" y="3"/><text fill="#000000" font-family="sans-serif" font-size="14" lengthAdjust="spacingAndGlyphs" textLength="115" x="1321.5" y="26.0439">ApplicationThread</text><rect fill="#FEFECE" filter="url(#fvi27rs8jsxwq)" height="33.1201" style="stroke: #A80036; stroke-width: 1.5;" width="129" x="1314.5" y="1115.7168"/><text fill="#000000" font-family="sans-serif" font-size="14" lengthAdjust="spacingAndGlyphs" textLength="115" x="1321.5" y="1138.7607">ApplicationThread</text><rect fill="#FEFECE" filter="url(#fvi27rs8jsxwq)" height="33.1201" style="stroke: #A80036; stroke-width: 1.5;" width="104" x="1483" y="3"/><text fill="#000000" font-family="sans-serif" font-size="14" lengthAdjust="spacingAndGlyphs" textLength="90" x="1490" y="26.0439">ActivityThread</text><rect fill="#FEFECE" filter="url(#fvi27rs8jsxwq)" height="33.1201" style="stroke: #A80036; stroke-width: 1.5;" width="104" x="1483" y="1115.7168"/><text fill="#000000" font-family="sans-serif" font-size="14" lengthAdjust="spacingAndGlyphs" textLength="90" x="1490" y="1138.7607">ActivityThread</text><rect fill="#FEFECE" filter="url(#fvi27rs8jsxwq)" height="33.1201" style="stroke: #A80036; stroke-width: 1.5;" width="58" x="1601" y="3"/><text fill="#000000" font-family="sans-serif" font-size="14" lengthAdjust="spacingAndGlyphs" textLength="44" x="1608" y="26.0439">Activity</text><rect fill="#FEFECE" filter="url(#fvi27rs8jsxwq)" height="33.1201" style="stroke: #A80036; stroke-width: 1.5;" width="58" x="1601" y="1115.7168"/><text fill="#000000" font-family="sans-serif" font-size="14" lengthAdjust="spacingAndGlyphs" textLength="44" x="1608" y="1138.7607">Activity</text><rect fill="#FFFFFF" filter="url(#fvi27rs8jsxwq)" height="140.2632" style="stroke: #A80036; stroke-width: 1.0;" width="10" x="98" y="51.1201"/><rect fill="#FFFFFF" filter="url(#fvi27rs8jsxwq)" height="91.7544" style="stroke: #A80036; stroke-width: 1.0;" width="10" x="246" y="161.3833"/><rect fill="#FFFFFF" filter="url(#fvi27rs8jsxwq)" height="91.7544" style="stroke: #A80036; stroke-width: 1.0;" width="10" x="246" y="962.208"/><rect fill="#FFFFFF" filter="url(#fvi27rs8jsxwq)" height="96.7544" style="stroke: #A80036; stroke-width: 1.0;" width="10" x="372.5" y="223.1377"/><rect fill="#FFFFFF" filter="url(#fvi27rs8jsxwq)" height="141.5088" style="stroke: #A80036; stroke-width: 1.0;" width="10" x="524" y="289.8921"/><rect fill="#FFFFFF" filter="url(#fvi27rs8jsxwq)" height="447.5439" style="stroke: #A80036; stroke-width: 1.0;" width="10" x="673" y="401.4009"/><rect fill="#FFFFFF" filter="url(#fvi27rs8jsxwq)" height="251.5264" style="stroke: #A80036; stroke-width: 1.0;" width="10" x="934" y="597.4185"/><rect fill="#FFFFFF" filter="url(#fvi27rs8jsxwq)" height="76.5088" style="stroke: #A80036; stroke-width: 1.0;" width="10" x="1176" y="660.9272"/><rect fill="#FFFFFF" filter="url(#fvi27rs8jsxwq)" height="173.2632" style="stroke: #A80036; stroke-width: 1.0;" width="10" x="1376" y="818.9448"/><rect fill="#FFFFFF" filter="url(#fvi27rs8jsxwq)" height="61.7544" style="stroke: #A80036; stroke-width: 1.0;" width="10" x="1532" y="930.4536"/><rect fill="#FFFFFF" filter="url(#fvi27rs8jsxwq)" height="67.7544" style="stroke: #A80036; stroke-width: 1.0;" width="10" x="1627" y="1023.9624"/><ellipse cx="10.5" cy="79.1245" fill="none" rx="4" ry="4" style="stroke: #A80036; stroke-width: 1.5;"/><polygon fill="#A80036" points="86,75.8745,96,79.8745,86,83.8745,90,79.8745" style="stroke: #A80036; stroke-width: 1.0;"/><line style="stroke: #A80036; stroke-width: 1.0;" x1="15" x2="92" y1="79.8745" y2="79.8745"/><text fill="#000000" font-family="sans-serif" font-size="13" lengthAdjust="spacingAndGlyphs" textLength="68" x="18" y="75.0181">startActivity</text><path d="M113,56.1201 L113,83.1201 L236,83.1201 L236,66.1201 L226,56.1201 L113,56.1201 " fill="#FBFB77" filter="url(#fvi27rs8jsxwq)" style="stroke: #A80036; stroke-width: 1.0;"/><path d="M226,56.1201 L226,66.1201 L236,66.1201 L226,56.1201 " fill="#FBFB77" style="stroke: #A80036; stroke-width: 1.0;"/><text fill="#000000" font-family="sans-serif" font-size="13" lengthAdjust="spacingAndGlyphs" textLength="102" x="119" y="76.0181">Launcher启动App</text><line style="stroke: #A80036; stroke-width: 1.0;" x1="108" x2="150" y1="116.6289" y2="116.6289"/><line style="stroke: #A80036; stroke-width: 1.0;" x1="150" x2="150" y1="116.6289" y2="129.6289"/><line style="stroke: #A80036; stroke-width: 1.0;" x1="109" x2="150" y1="129.6289" y2="129.6289"/><polygon fill="#A80036" points="119,125.6289,109,129.6289,119,133.6289,115,129.6289" style="stroke: #A80036; stroke-width: 1.0;"/><text fill="#000000" font-family="sans-serif" font-size="13" lengthAdjust="spacingAndGlyphs" textLength="124" x="115" y="111.7725">startActivityForResult</text><polygon fill="#A80036" points="234,157.3833,244,161.3833,234,165.3833,238,161.3833" style="stroke: #A80036; stroke-width: 1.0;"/><line style="stroke: #A80036; stroke-width: 1.0;" x1="108" x2="240" y1="161.3833" y2="161.3833"/><text fill="#000000" font-family="sans-serif" font-size="13" lengthAdjust="spacingAndGlyphs" textLength="98" x="115" y="156.5269">execStartActivity</text><polygon fill="#A80036" points="360.5,219.1377,370.5,223.1377,360.5,227.1377,364.5,223.1377" style="stroke: #A80036; stroke-width: 1.0;"/><line style="stroke: #A80036; stroke-width: 1.0;" x1="256" x2="366.5" y1="223.1377" y2="223.1377"/><text fill="#000000" font-family="sans-serif" font-size="13" lengthAdjust="spacingAndGlyphs" textLength="60" x="263" y="218.2813">getService</text><polygon fill="#A80036" points="512,285.8921,522,289.8921,512,293.8921,516,289.8921" style="stroke: #A80036; stroke-width: 1.0;"/><line style="stroke: #A80036; stroke-width: 1.0;" x1="382.5" x2="518" y1="289.8921" y2="289.8921"/><text fill="#000000" font-family="sans-serif" font-size="13" lengthAdjust="spacingAndGlyphs" textLength="68" x="389.5" y="285.0356">startActivity</text><path d="M539,266.1377 L539,293.1377 L730,293.1377 L730,276.1377 L720,266.1377 L539,266.1377 " fill="#FBFB77" filter="url(#fvi27rs8jsxwq)" style="stroke: #A80036; stroke-width: 1.0;"/><path d="M720,266.1377 L720,276.1377 L730,276.1377 L720,266.1377 " fill="#FBFB77" style="stroke: #A80036; stroke-width: 1.0;"/><text fill="#000000" font-family="sans-serif" font-size="13" lengthAdjust="spacingAndGlyphs" textLength="170" x="545" y="286.0356">Binder通信SystemServer进程</text><line style="stroke: #A80036; stroke-width: 1.0;" x1="534" x2="576" y1="356.6465" y2="356.6465"/><line style="stroke: #A80036; stroke-width: 1.0;" x1="576" x2="576" y1="356.6465" y2="369.6465"/><line style="stroke: #A80036; stroke-width: 1.0;" x1="535" x2="576" y1="369.6465" y2="369.6465"/><polygon fill="#A80036" points="545,365.6465,535,369.6465,545,373.6465,541,369.6465" style="stroke: #A80036; stroke-width: 1.0;"/><text fill="#000000" font-family="sans-serif" font-size="13" lengthAdjust="spacingAndGlyphs" textLength="111" x="541" y="351.79">startActivityAsUser</text><polygon fill="#A80036" points="661,397.4009,671,401.4009,661,405.4009,665,401.4009" style="stroke: #A80036; stroke-width: 1.0;"/><line style="stroke: #A80036; stroke-width: 1.0;" x1="534" x2="667" y1="401.4009" y2="401.4009"/><text fill="#000000" font-family="sans-serif" font-size="13" lengthAdjust="spacingAndGlyphs" textLength="120" x="541" y="396.5444">startActivityMayWait</text><line style="stroke: #A80036; stroke-width: 1.0;" x1="683" x2="725" y1="463.1553" y2="463.1553"/><line style="stroke: #A80036; stroke-width: 1.0;" x1="725" x2="725" y1="463.1553" y2="476.1553"/><line style="stroke: #A80036; stroke-width: 1.0;" x1="684" x2="725" y1="476.1553" y2="476.1553"/><polygon fill="#A80036" points="694,472.1553,684,476.1553,694,480.1553,690,476.1553" style="stroke: #A80036; stroke-width: 1.0;"/><text fill="#000000" font-family="sans-serif" font-size="13" lengthAdjust="spacingAndGlyphs" textLength="110" x="690" y="458.2988">startActivityLocked</text><line style="stroke: #A80036; stroke-width: 1.0;" x1="683" x2="725" y1="507.9097" y2="507.9097"/><line style="stroke: #A80036; stroke-width: 1.0;" x1="725" x2="725" y1="507.9097" y2="520.9097"/><line style="stroke: #A80036; stroke-width: 1.0;" x1="684" x2="725" y1="520.9097" y2="520.9097"/><polygon fill="#A80036" points="694,516.9097,684,520.9097,694,524.9097,690,520.9097" style="stroke: #A80036; stroke-width: 1.0;"/><text fill="#000000" font-family="sans-serif" font-size="13" lengthAdjust="spacingAndGlyphs" textLength="68" x="690" y="503.0532">startActivity</text><line style="stroke: #A80036; stroke-width: 1.0;" x1="683" x2="725" y1="552.6641" y2="552.6641"/><line style="stroke: #A80036; stroke-width: 1.0;" x1="725" x2="725" y1="552.6641" y2="565.6641"/><line style="stroke: #A80036; stroke-width: 1.0;" x1="684" x2="725" y1="565.6641" y2="565.6641"/><polygon fill="#A80036" points="694,561.6641,684,565.6641,694,569.6641,690,565.6641" style="stroke: #A80036; stroke-width: 1.0;"/><text fill="#000000" font-family="sans-serif" font-size="13" lengthAdjust="spacingAndGlyphs" textLength="133" x="690" y="547.8076">startActivityUnchecked</text><polygon fill="#A80036" points="922,593.4185,932,597.4185,922,601.4185,926,597.4185" style="stroke: #A80036; stroke-width: 1.0;"/><line style="stroke: #A80036; stroke-width: 1.0;" x1="683" x2="928" y1="597.4185" y2="597.4185"/><text fill="#000000" font-family="sans-serif" font-size="13" lengthAdjust="spacingAndGlyphs" textLength="232" x="690" y="592.562">resumeFocusedStackTopActivityLocked</text><polygon fill="#A80036" points="922,625.1729,932,629.1729,922,633.1729,926,629.1729" style="stroke: #A80036; stroke-width: 1.0;"/><line style="stroke: #A80036; stroke-width: 1.0;" x1="683" x2="928" y1="629.1729" y2="629.1729"/><text fill="#000000" font-family="sans-serif" font-size="13" lengthAdjust="spacingAndGlyphs" textLength="213" x="690" y="624.3164">resumeTopActivityUncheckedLocked</text><polygon fill="#A80036" points="1164,656.9272,1174,660.9272,1164,664.9272,1168,660.9272" style="stroke: #A80036; stroke-width: 1.0;"/><line style="stroke: #A80036; stroke-width: 1.0;" x1="944" x2="1170" y1="660.9272" y2="660.9272"/><text fill="#000000" font-family="sans-serif" font-size="13" lengthAdjust="spacingAndGlyphs" textLength="213" x="951" y="656.0708">resumeTopActivityUncheckedLocked</text><line style="stroke: #A80036; stroke-width: 1.0;" x1="1186" x2="1228" y1="692.6816" y2="692.6816"/><line style="stroke: #A80036; stroke-width: 1.0;" x1="1228" x2="1228" y1="692.6816" y2="705.6816"/><line style="stroke: #A80036; stroke-width: 1.0;" x1="1187" x2="1228" y1="705.6816" y2="705.6816"/><polygon fill="#A80036" points="1197,701.6816,1187,705.6816,1197,709.6816,1193,705.6816" style="stroke: #A80036; stroke-width: 1.0;"/><text fill="#000000" font-family="sans-serif" font-size="13" lengthAdjust="spacingAndGlyphs" textLength="176" x="1193" y="687.8252">resumeTopActivityInnerLocked</text><polygon fill="#A80036" points="955,733.436,945,737.436,955,741.436,951,737.436" style="stroke: #A80036; stroke-width: 1.0;"/><line style="stroke: #A80036; stroke-width: 1.0;" x1="949" x2="1180" y1="737.436" y2="737.436"/><text fill="#000000" font-family="sans-serif" font-size="13" lengthAdjust="spacingAndGlyphs" textLength="156" x="961" y="732.5796">startSpecificActivityLocked</text><line style="stroke: #A80036; stroke-width: 1.0;" x1="944" x2="986" y1="769.1904" y2="769.1904"/><line style="stroke: #A80036; stroke-width: 1.0;" x1="986" x2="986" y1="769.1904" y2="782.1904"/><line style="stroke: #A80036; stroke-width: 1.0;" x1="945" x2="986" y1="782.1904" y2="782.1904"/><polygon fill="#A80036" points="955,778.1904,945,782.1904,955,786.1904,951,782.1904" style="stroke: #A80036; stroke-width: 1.0;"/><text fill="#000000" font-family="sans-serif" font-size="13" lengthAdjust="spacingAndGlyphs" textLength="133" x="951" y="764.334">realStartActivityLocked</text><path d="M1096,751.936 L1096,778.936 L1468,778.936 L1468,761.936 L1458,751.936 L1096,751.936 " fill="#FBFB77" filter="url(#fvi27rs8jsxwq)" style="stroke: #A80036; stroke-width: 1.0;"/><path d="M1458,751.936 L1458,761.936 L1468,761.936 L1458,751.936 " fill="#FBFB77" style="stroke: #A80036; stroke-width: 1.0;"/><text fill="#000000" font-family="sans-serif" font-size="13" lengthAdjust="spacingAndGlyphs" textLength="351" x="1102" y="771.834">已创建进程情况，未创建此处会请求Zygote创建进程后再调用</text><polygon fill="#A80036" points="1364,814.9448,1374,818.9448,1364,822.9448,1368,818.9448" style="stroke: #A80036; stroke-width: 1.0;"/><line style="stroke: #A80036; stroke-width: 1.0;" x1="944" x2="1370" y1="818.9448" y2="818.9448"/><text fill="#000000" font-family="sans-serif" font-size="13" lengthAdjust="spacingAndGlyphs" textLength="136" x="951" y="814.0884">scheduleLaunchActivity</text><path d="M1391,795.1904 L1391,822.1904 L1563,822.1904 L1563,805.1904 L1553,795.1904 L1391,795.1904 " fill="#FBFB77" filter="url(#fvi27rs8jsxwq)" style="stroke: #A80036; stroke-width: 1.0;"/><path d="M1553,795.1904 L1553,805.1904 L1563,805.1904 L1553,795.1904 " fill="#FBFB77" style="stroke: #A80036; stroke-width: 1.0;"/><text fill="#000000" font-family="sans-serif" font-size="13" lengthAdjust="spacingAndGlyphs" textLength="151" x="1397" y="815.0884">Binder通信创建的App进程</text><line style="stroke: #A80036; stroke-width: 1.0;" x1="1386" x2="1428" y1="885.6992" y2="885.6992"/><line style="stroke: #A80036; stroke-width: 1.0;" x1="1428" x2="1428" y1="885.6992" y2="898.6992"/><line style="stroke: #A80036; stroke-width: 1.0;" x1="1387" x2="1428" y1="898.6992" y2="898.6992"/><polygon fill="#A80036" points="1397,894.6992,1387,898.6992,1397,902.6992,1393,898.6992" style="stroke: #A80036; stroke-width: 1.0;"/><text fill="#000000" font-family="sans-serif" font-size="13" lengthAdjust="spacingAndGlyphs" textLength="122" x="1393" y="880.8428">handleLaunchActivity</text><polygon fill="#A80036" points="1520,926.4536,1530,930.4536,1520,934.4536,1524,930.4536" style="stroke: #A80036; stroke-width: 1.0;"/><line style="stroke: #A80036; stroke-width: 1.0;" x1="1386" x2="1526" y1="930.4536" y2="930.4536"/><text fill="#000000" font-family="sans-serif" font-size="13" lengthAdjust="spacingAndGlyphs" textLength="127" x="1393" y="925.5972">performLaunchActivity</text><polygon fill="#A80036" points="267,958.208,257,962.208,267,966.208,263,962.208" style="stroke: #A80036; stroke-width: 1.0;"/><line style="stroke: #A80036; stroke-width: 1.0;" x1="261" x2="1531" y1="962.208" y2="962.208"/><text fill="#000000" font-family="sans-serif" font-size="13" lengthAdjust="spacingAndGlyphs" textLength="117" x="273" y="957.3516">callActivityOnCreate</text><polygon fill="#A80036" points="1615,1019.9624,1625,1023.9624,1615,1027.9624,1619,1023.9624" style="stroke: #A80036; stroke-width: 1.0;"/><line style="stroke: #A80036; stroke-width: 1.0;" x1="256" x2="1621" y1="1023.9624" y2="1023.9624"/><text fill="#000000" font-family="sans-serif" font-size="13" lengthAdjust="spacingAndGlyphs" textLength="81" x="263" y="1019.106">performCreate</text><line style="stroke: #A80036; stroke-width: 1.0;" x1="1637" x2="1679" y1="1090.7168" y2="1090.7168"/><line style="stroke: #A80036; stroke-width: 1.0;" x1="1679" x2="1679" y1="1090.7168" y2="1103.7168"/><line style="stroke: #A80036; stroke-width: 1.0;" x1="1632" x2="1679" y1="1103.7168" y2="1103.7168"/><polygon fill="#A80036" points="1642,1099.7168,1632,1103.7168,1642,1107.7168,1638,1103.7168" style="stroke: #A80036; stroke-width: 1.0;"/><text fill="#000000" font-family="sans-serif" font-size="13" lengthAdjust="spacingAndGlyphs" textLength="52" x="1644" y="1085.8604">onCreate</text><!--MD5=[693ad29d56d5ffdc967202b89ff75cc1]
@startuml
activate LauncherActivity
[o-> LauncherActivity: startActivity
note right: Launcher启动App
LauncherActivity -> LauncherActivity: startActivityForResult
LauncherActivity -> Instrumentation: execStartActivity
activate Instrumentation
deactivate LauncherActivity
Instrumentation -> ActivityManager: getService
activate ActivityManager
deactivate Instrumentation
ActivityManager -> ActivityManagerService: startActivity
note right: Binder通信SystemServer进程
activate ActivityManagerService
deactivate ActivityManager
ActivityManagerService -> ActivityManagerService: startActivityAsUser
ActivityManagerService -> ActivityStarter: startActivityMayWait
activate ActivityStarter
deactivate ActivityManagerService
ActivityStarter -> ActivityStarter: startActivityLocked
ActivityStarter -> ActivityStarter: startActivity
ActivityStarter -> ActivityStarter: startActivityUnchecked
ActivityStarter -> ActivityStackSupervisor: resumeFocusedStackTopActivityLocked
activate ActivityStackSupervisor
ActivityStarter -> ActivityStackSupervisor: resumeTopActivityUncheckedLocked
ActivityStackSupervisor -> ActivityStack: resumeTopActivityUncheckedLocked
activate ActivityStack
ActivityStack -> ActivityStack: resumeTopActivityInnerLocked
ActivityStack -> ActivityStackSupervisor: startSpecificActivityLocked
deactivate ActivityStack
ActivityStackSupervisor -> ActivityStackSupervisor: realStartActivityLocked
note right: 已创建进程情况，未创建此处会请求Zygote创建进程后再调用
ActivityStackSupervisor -> ApplicationThread: scheduleLaunchActivity
note right: Binder通信创建的App进程
activate ApplicationThread
deactivate ActivityStackSupervisor
deactivate ActivityStarter
ApplicationThread -> ApplicationThread: handleLaunchActivity
ApplicationThread -> ActivityThread: performLaunchActivity
activate ActivityThread
ActivityThread -> Instrumentation: callActivityOnCreate
activate Instrumentation
deactivate ApplicationThread
deactivate ActivityThread
Instrumentation -> Activity: performCreate
activate Activity
deactivate Instrumentation
Activity -> Activity: onCreate
deactivate Activity
@enduml

PlantUML version 1.2020.09(Sun May 10 18:51:06 CST 2020)
(GPL source distribution)
Java Runtime: OpenJDK Runtime Environment
JVM: OpenJDK 64-Bit Server VM
Java Version: 1.8.0_242-release-1644-b01
Operating System: Windows 10
Default Encoding: GBK
Language: zh
Country: CN
--></g></svg>