<?xml version="1.0" encoding="UTF-8" standalone="no"?><svg xmlns="http://www.w3.org/2000/svg" xmlns:xlink="http://www.w3.org/1999/xlink" contentScriptType="application/ecmascript" contentStyleType="text/css" height="425px" preserveAspectRatio="none" style="width:629px;height:425px;" version="1.1" viewBox="0 0 629 425" width="629px" zoomAndPan="magnify"><defs><filter height="300%" id="fwo6ex2pwi2l8" width="300%" x="-1" y="-1"><feGaussianBlur result="blurOut" stdDeviation="2.0"/><feColorMatrix in="blurOut" result="blurOut2" type="matrix" values="0 0 0 0 0 0 0 0 0 0 0 0 0 0 0 0 0 0 .4 0"/><feOffset dx="4.0" dy="4.0" in="blurOut2" result="blurOut3"/><feBlend in="SourceGraphic" in2="blurOut3" mode="normal"/></filter></defs><g><rect fill="#FFFFFF" filter="url(#fwo6ex2pwi2l8)" height="85.5088" style="stroke: #A80036; stroke-width: 1.0;" width="10" x="146" y="51.1201"/><rect fill="#FFFFFF" filter="url(#fwo6ex2pwi2l8)" height="91.7544" style="stroke: #A80036; stroke-width: 1.0;" width="10" x="273" y="106.6289"/><rect fill="#FFFFFF" filter="url(#fwo6ex2pwi2l8)" height="189.0176" style="stroke: #A80036; stroke-width: 1.0;" width="10" x="373.5" y="168.3833"/><rect fill="#FFFFFF" filter="url(#fwo6ex2pwi2l8)" height="37.7544" style="stroke: #A80036; stroke-width: 1.0;" width="10" x="570.5" y="319.6465"/><line style="stroke: #A80036; stroke-width: 1.0; stroke-dasharray: 5.0,5.0;" x1="150.5" x2="150.5" y1="41.1201" y2="382.4009"/><line style="stroke: #A80036; stroke-width: 1.0; stroke-dasharray: 5.0,5.0;" x1="277.5" x2="277.5" y1="41.1201" y2="382.4009"/><line style="stroke: #A80036; stroke-width: 1.0; stroke-dasharray: 5.0,5.0;" x1="378.5" x2="378.5" y1="41.1201" y2="382.4009"/><line style="stroke: #A80036; stroke-width: 1.0; stroke-dasharray: 5.0,5.0;" x1="575.5" x2="575.5" y1="41.1201" y2="382.4009"/><rect fill="#FEFECE" filter="url(#fwo6ex2pwi2l8)" height="33.1201" style="stroke: #A80036; stroke-width: 1.5;" width="161" x="68.5" y="3"/><text fill="#000000" font-family="sans-serif" font-size="14" lengthAdjust="spacingAndGlyphs" textLength="147" x="75.5" y="26.0439">ActivityManagerService</text><rect fill="#FEFECE" filter="url(#fwo6ex2pwi2l8)" height="33.1201" style="stroke: #A80036; stroke-width: 1.5;" width="161" x="68.5" y="381.4009"/><text fill="#000000" font-family="sans-serif" font-size="14" lengthAdjust="spacingAndGlyphs" textLength="147" x="75.5" y="404.4448">ActivityManagerService</text><rect fill="#FEFECE" filter="url(#fwo6ex2pwi2l8)" height="33.1201" style="stroke: #A80036; stroke-width: 1.5;" width="65" x="243.5" y="3"/><text fill="#000000" font-family="sans-serif" font-size="14" lengthAdjust="spacingAndGlyphs" textLength="51" x="250.5" y="26.0439">Process</text><rect fill="#FEFECE" filter="url(#fwo6ex2pwi2l8)" height="33.1201" style="stroke: #A80036; stroke-width: 1.5;" width="65" x="243.5" y="381.4009"/><text fill="#000000" font-family="sans-serif" font-size="14" lengthAdjust="spacingAndGlyphs" textLength="51" x="250.5" y="404.4448">Process</text><rect fill="#FEFECE" filter="url(#fwo6ex2pwi2l8)" height="33.1201" style="stroke: #A80036; stroke-width: 1.5;" width="108" x="322.5" y="3"/><text fill="#000000" font-family="sans-serif" font-size="14" lengthAdjust="spacingAndGlyphs" textLength="94" x="329.5" y="26.0439">ZygoteProcess</text><rect fill="#FEFECE" filter="url(#fwo6ex2pwi2l8)" height="33.1201" style="stroke: #A80036; stroke-width: 1.5;" width="108" x="322.5" y="381.4009"/><text fill="#000000" font-family="sans-serif" font-size="14" lengthAdjust="spacingAndGlyphs" textLength="94" x="329.5" y="404.4448">ZygoteProcess</text><rect fill="#FEFECE" filter="url(#fwo6ex2pwi2l8)" height="33.1201" style="stroke: #A80036; stroke-width: 1.5;" width="90" x="528.5" y="3"/><text fill="#000000" font-family="sans-serif" font-size="14" lengthAdjust="spacingAndGlyphs" textLength="76" x="535.5" y="26.0439">ZygoteState</text><rect fill="#FEFECE" filter="url(#fwo6ex2pwi2l8)" height="33.1201" style="stroke: #A80036; stroke-width: 1.5;" width="90" x="528.5" y="381.4009"/><text fill="#000000" font-family="sans-serif" font-size="14" lengthAdjust="spacingAndGlyphs" textLength="76" x="535.5" y="404.4448">ZygoteState</text><rect fill="#FFFFFF" filter="url(#fwo6ex2pwi2l8)" height="85.5088" style="stroke: #A80036; stroke-width: 1.0;" width="10" x="146" y="51.1201"/><rect fill="#FFFFFF" filter="url(#fwo6ex2pwi2l8)" height="91.7544" style="stroke: #A80036; stroke-width: 1.0;" width="10" x="273" y="106.6289"/><rect fill="#FFFFFF" filter="url(#fwo6ex2pwi2l8)" height="189.0176" style="stroke: #A80036; stroke-width: 1.0;" width="10" x="373.5" y="168.3833"/><rect fill="#FFFFFF" filter="url(#fwo6ex2pwi2l8)" height="37.7544" style="stroke: #A80036; stroke-width: 1.0;" width="10" x="570.5" y="319.6465"/><ellipse cx="10.5" cy="74.1245" fill="none" rx="4" ry="4" style="stroke: #A80036; stroke-width: 1.5;"/><polygon fill="#A80036" points="134,70.8745,144,74.8745,134,78.8745,138,74.8745" style="stroke: #A80036; stroke-width: 1.0;"/><line style="stroke: #A80036; stroke-width: 1.0;" x1="15" x2="140" y1="74.8745" y2="74.8745"/><text fill="#000000" font-family="sans-serif" font-size="13" lengthAdjust="spacingAndGlyphs" textLength="116" x="18" y="70.0181">startProcessLocked</text><polygon fill="#A80036" points="261,102.6289,271,106.6289,261,110.6289,265,106.6289" style="stroke: #A80036; stroke-width: 1.0;"/><line style="stroke: #A80036; stroke-width: 1.0;" x1="156" x2="267" y1="106.6289" y2="106.6289"/><text fill="#000000" font-family="sans-serif" font-size="13" lengthAdjust="spacingAndGlyphs" textLength="26" x="163" y="101.7725">start</text><polygon fill="#A80036" points="361.5,164.3833,371.5,168.3833,361.5,172.3833,365.5,168.3833" style="stroke: #A80036; stroke-width: 1.0;"/><line style="stroke: #A80036; stroke-width: 1.0;" x1="283" x2="367.5" y1="168.3833" y2="168.3833"/><text fill="#000000" font-family="sans-serif" font-size="13" lengthAdjust="spacingAndGlyphs" textLength="26" x="290" y="163.5269">start</text><line style="stroke: #A80036; stroke-width: 1.0;" x1="383.5" x2="425.5" y1="230.1377" y2="230.1377"/><line style="stroke: #A80036; stroke-width: 1.0;" x1="425.5" x2="425.5" y1="230.1377" y2="243.1377"/><line style="stroke: #A80036; stroke-width: 1.0;" x1="384.5" x2="425.5" y1="243.1377" y2="243.1377"/><polygon fill="#A80036" points="394.5,239.1377,384.5,243.1377,394.5,247.1377,390.5,243.1377" style="stroke: #A80036; stroke-width: 1.0;"/><text fill="#000000" font-family="sans-serif" font-size="13" lengthAdjust="spacingAndGlyphs" textLength="84" x="390.5" y="225.2813">startViaZygote</text><line style="stroke: #A80036; stroke-width: 1.0;" x1="383.5" x2="425.5" y1="274.8921" y2="274.8921"/><line style="stroke: #A80036; stroke-width: 1.0;" x1="425.5" x2="425.5" y1="274.8921" y2="287.8921"/><line style="stroke: #A80036; stroke-width: 1.0;" x1="384.5" x2="425.5" y1="287.8921" y2="287.8921"/><polygon fill="#A80036" points="394.5,283.8921,384.5,287.8921,394.5,291.8921,390.5,287.8921" style="stroke: #A80036; stroke-width: 1.0;"/><text fill="#000000" font-family="sans-serif" font-size="13" lengthAdjust="spacingAndGlyphs" textLength="158" x="390.5" y="270.0356">openZygoteSocketIfNeeded</text><polygon fill="#A80036" points="558.5,315.6465,568.5,319.6465,558.5,323.6465,562.5,319.6465" style="stroke: #A80036; stroke-width: 1.0;"/><line style="stroke: #A80036; stroke-width: 1.0;" x1="383.5" x2="564.5" y1="319.6465" y2="319.6465"/><text fill="#000000" font-family="sans-serif" font-size="13" lengthAdjust="spacingAndGlyphs" textLength="46" x="390.5" y="314.79">connect</text><line style="stroke: #A80036; stroke-width: 1.0;" x1="383.5" x2="425.5" y1="356.4009" y2="356.4009"/><line style="stroke: #A80036; stroke-width: 1.0;" x1="425.5" x2="425.5" y1="356.4009" y2="369.4009"/><line style="stroke: #A80036; stroke-width: 1.0;" x1="378.5" x2="425.5" y1="369.4009" y2="369.4009"/><polygon fill="#A80036" points="388.5,365.4009,378.5,369.4009,388.5,373.4009,384.5,369.4009" style="stroke: #A80036; stroke-width: 1.0;"/><text fill="#000000" font-family="sans-serif" font-size="13" lengthAdjust="spacingAndGlyphs" textLength="173" x="390.5" y="351.5444">zygoteSendArgsAndGetResul</text><!--MD5=[b084f0f21b8cd8fa48463862199ee64e]
@startuml
activate ActivityManagerService
[o-> ActivityManagerService: startProcessLocked
ActivityManagerService -> Process: start
activate Process
deactivate ActivityManagerService
Process -> ZygoteProcess: start
activate ZygoteProcess
deactivate Process
ZygoteProcess -> ZygoteProcess: startViaZygote
ZygoteProcess -> ZygoteProcess: openZygoteSocketIfNeeded
ZygoteProcess -> ZygoteState: connect
activate ZygoteState
ZygoteProcess -> ZygoteProcess: zygoteSendArgsAndGetResul
deactivate ZygoteState
deactivate ZygoteProcess
@enduml

PlantUML version 1.2020.09(Sun May 10 18:51:06 CST 2020)
(GPL source distribution)
Java Runtime: OpenJDK Runtime Environment
JVM: OpenJDK 64-Bit Server VM
Java Version: 1.8.0_242-release-1644-b01
Operating System: Windows 10
Default Encoding: GBK
Language: zh
Country: CN
--></g></svg>