<?xml version="1.0" encoding="UTF-8" standalone="no"?><svg xmlns="http://www.w3.org/2000/svg" xmlns:xlink="http://www.w3.org/1999/xlink" contentScriptType="application/ecmascript" contentStyleType="text/css" height="582px" preserveAspectRatio="none" style="width:763px;height:582px;" version="1.1" viewBox="0 0 763 582" width="763px" zoomAndPan="magnify"><defs><filter height="300%" id="fhx7iolpdgmig" width="300%" x="-1" y="-1"><feGaussianBlur result="blurOut" stdDeviation="2.0"/><feColorMatrix in="blurOut" result="blurOut2" type="matrix" values="0 0 0 0 0 0 0 0 0 0 0 0 0 0 0 0 0 0 .4 0"/><feOffset dx="4.0" dy="4.0" in="blurOut2" result="blurOut3"/><feBlend in="SourceGraphic" in2="blurOut3" mode="normal"/></filter></defs><g><rect fill="#FFFFFF" filter="url(#fhx7iolpdgmig)" height="408.5439" style="stroke: #A80036; stroke-width: 1.0;" width="10" x="58" y="51.1201"/><rect fill="#FFFFFF" filter="url(#fhx7iolpdgmig)" height="93.5088" style="stroke: #A80036; stroke-width: 1.0;" width="10" x="175" y="74.8745"/><rect fill="#FFFFFF" filter="url(#fhx7iolpdgmig)" height="106.5088" style="stroke: #A80036; stroke-width: 1.0;" width="10" x="303" y="138.3833"/><rect fill="#FFFFFF" filter="url(#fhx7iolpdgmig)" height="106.5088" style="stroke: #A80036; stroke-width: 1.0;" width="10" x="423.5" y="321.4009"/><rect fill="#FFFFFF" filter="url(#fhx7iolpdgmig)" height="123.5088" style="stroke: #A80036; stroke-width: 1.0;" width="10" x="555.5" y="397.9097"/><rect fill="#FFFFFF" filter="url(#fhx7iolpdgmig)" height="30" style="stroke: #A80036; stroke-width: 1.0;" width="10" x="697.5" y="491.4185"/><line style="stroke: #A80036; stroke-width: 1.0; stroke-dasharray: 5.0,5.0;" x1="62.5" x2="62.5" y1="41.1201" y2="539.4185"/><line style="stroke: #A80036; stroke-width: 1.0; stroke-dasharray: 5.0,5.0;" x1="179.5" x2="179.5" y1="41.1201" y2="539.4185"/><line style="stroke: #A80036; stroke-width: 1.0; stroke-dasharray: 5.0,5.0;" x1="307.5" x2="307.5" y1="41.1201" y2="539.4185"/><line style="stroke: #A80036; stroke-width: 1.0; stroke-dasharray: 5.0,5.0;" x1="428.5" x2="428.5" y1="41.1201" y2="539.4185"/><line style="stroke: #A80036; stroke-width: 1.0; stroke-dasharray: 5.0,5.0;" x1="560.5" x2="560.5" y1="41.1201" y2="539.4185"/><line style="stroke: #A80036; stroke-width: 1.0; stroke-dasharray: 5.0,5.0;" x1="702.5" x2="702.5" y1="41.1201" y2="539.4185"/><rect fill="#FEFECE" filter="url(#fhx7iolpdgmig)" height="33.1201" style="stroke: #A80036; stroke-width: 1.5;" width="75" x="23.5" y="3"/><text fill="#000000" font-family="sans-serif" font-size="14" lengthAdjust="spacingAndGlyphs" textLength="61" x="30.5" y="26.0439">ZygoteInit</text><rect fill="#FEFECE" filter="url(#fhx7iolpdgmig)" height="33.1201" style="stroke: #A80036; stroke-width: 1.5;" width="75" x="23.5" y="538.4185"/><text fill="#000000" font-family="sans-serif" font-size="14" lengthAdjust="spacingAndGlyphs" textLength="61" x="30.5" y="561.4624">ZygoteInit</text><rect fill="#FEFECE" filter="url(#fhx7iolpdgmig)" height="33.1201" style="stroke: #A80036; stroke-width: 1.5;" width="99" x="128.5" y="3"/><text fill="#000000" font-family="sans-serif" font-size="14" lengthAdjust="spacingAndGlyphs" textLength="85" x="135.5" y="26.0439">ZygoteServer</text><rect fill="#FEFECE" filter="url(#fhx7iolpdgmig)" height="33.1201" style="stroke: #A80036; stroke-width: 1.5;" width="99" x="128.5" y="538.4185"/><text fill="#000000" font-family="sans-serif" font-size="14" lengthAdjust="spacingAndGlyphs" textLength="85" x="135.5" y="561.4624">ZygoteServer</text><rect fill="#FEFECE" filter="url(#fhx7iolpdgmig)" height="33.1201" style="stroke: #A80036; stroke-width: 1.5;" width="129" x="241.5" y="3"/><text fill="#000000" font-family="sans-serif" font-size="14" lengthAdjust="spacingAndGlyphs" textLength="115" x="248.5" y="26.0439">ZygoteConnection</text><rect fill="#FEFECE" filter="url(#fhx7iolpdgmig)" height="33.1201" style="stroke: #A80036; stroke-width: 1.5;" width="129" x="241.5" y="538.4185"/><text fill="#000000" font-family="sans-serif" font-size="14" lengthAdjust="spacingAndGlyphs" textLength="115" x="248.5" y="561.4624">ZygoteConnection</text><rect fill="#FEFECE" filter="url(#fhx7iolpdgmig)" height="33.1201" style="stroke: #A80036; stroke-width: 1.5;" width="84" x="384.5" y="3"/><text fill="#000000" font-family="sans-serif" font-size="14" lengthAdjust="spacingAndGlyphs" textLength="70" x="391.5" y="26.0439">RuntimeInit</text><rect fill="#FEFECE" filter="url(#fhx7iolpdgmig)" height="33.1201" style="stroke: #A80036; stroke-width: 1.5;" width="84" x="384.5" y="538.4185"/><text fill="#000000" font-family="sans-serif" font-size="14" lengthAdjust="spacingAndGlyphs" textLength="70" x="391.5" y="561.4624">RuntimeInit</text><rect fill="#FEFECE" filter="url(#fhx7iolpdgmig)" height="33.1201" style="stroke: #A80036; stroke-width: 1.5;" width="152" x="482.5" y="3"/><text fill="#000000" font-family="sans-serif" font-size="14" lengthAdjust="spacingAndGlyphs" textLength="138" x="489.5" y="26.0439">MethodAndArgsCaller</text><rect fill="#FEFECE" filter="url(#fhx7iolpdgmig)" height="33.1201" style="stroke: #A80036; stroke-width: 1.5;" width="152" x="482.5" y="538.4185"/><text fill="#000000" font-family="sans-serif" font-size="14" lengthAdjust="spacingAndGlyphs" textLength="138" x="489.5" y="561.4624">MethodAndArgsCaller</text><rect fill="#FEFECE" filter="url(#fhx7iolpdgmig)" height="33.1201" style="stroke: #A80036; stroke-width: 1.5;" width="104" x="648.5" y="3"/><text fill="#000000" font-family="sans-serif" font-size="14" lengthAdjust="spacingAndGlyphs" textLength="90" x="655.5" y="26.0439">ActivityThread</text><rect fill="#FEFECE" filter="url(#fhx7iolpdgmig)" height="33.1201" style="stroke: #A80036; stroke-width: 1.5;" width="104" x="648.5" y="538.4185"/><text fill="#000000" font-family="sans-serif" font-size="14" lengthAdjust="spacingAndGlyphs" textLength="90" x="655.5" y="561.4624">ActivityThread</text><rect fill="#FFFFFF" filter="url(#fhx7iolpdgmig)" height="408.5439" style="stroke: #A80036; stroke-width: 1.0;" width="10" x="58" y="51.1201"/><rect fill="#FFFFFF" filter="url(#fhx7iolpdgmig)" height="93.5088" style="stroke: #A80036; stroke-width: 1.0;" width="10" x="175" y="74.8745"/><rect fill="#FFFFFF" filter="url(#fhx7iolpdgmig)" height="106.5088" style="stroke: #A80036; stroke-width: 1.0;" width="10" x="303" y="138.3833"/><rect fill="#FFFFFF" filter="url(#fhx7iolpdgmig)" height="106.5088" style="stroke: #A80036; stroke-width: 1.0;" width="10" x="423.5" y="321.4009"/><rect fill="#FFFFFF" filter="url(#fhx7iolpdgmig)" height="123.5088" style="stroke: #A80036; stroke-width: 1.0;" width="10" x="555.5" y="397.9097"/><rect fill="#FFFFFF" filter="url(#fhx7iolpdgmig)" height="30" style="stroke: #A80036; stroke-width: 1.0;" width="10" x="697.5" y="491.4185"/><ellipse cx="10.5" cy="74.1245" fill="none" rx="4" ry="4" style="stroke: #A80036; stroke-width: 1.5;"/><polygon fill="#A80036" points="46,70.8745,56,74.8745,46,78.8745,50,74.8745" style="stroke: #A80036; stroke-width: 1.0;"/><line style="stroke: #A80036; stroke-width: 1.0;" x1="15" x2="52" y1="74.8745" y2="74.8745"/><text fill="#000000" font-family="sans-serif" font-size="13" lengthAdjust="spacingAndGlyphs" textLength="28" x="18" y="70.0181">main</text><polygon fill="#A80036" points="163,102.6289,173,106.6289,163,110.6289,167,106.6289" style="stroke: #A80036; stroke-width: 1.0;"/><line style="stroke: #A80036; stroke-width: 1.0;" x1="68" x2="169" y1="106.6289" y2="106.6289"/><text fill="#000000" font-family="sans-serif" font-size="13" lengthAdjust="spacingAndGlyphs" textLength="83" x="75" y="101.7725">runSelectLoop</text><polygon fill="#A80036" points="291,134.3833,301,138.3833,291,142.3833,295,138.3833" style="stroke: #A80036; stroke-width: 1.0;"/><line style="stroke: #A80036; stroke-width: 1.0;" x1="185" x2="297" y1="138.3833" y2="138.3833"/><text fill="#000000" font-family="sans-serif" font-size="13" lengthAdjust="spacingAndGlyphs" textLength="49" x="192" y="133.5269">runOnce</text><line style="stroke: #A80036; stroke-width: 1.0;" x1="313" x2="355" y1="200.1377" y2="200.1377"/><line style="stroke: #A80036; stroke-width: 1.0;" x1="355" x2="355" y1="200.1377" y2="213.1377"/><line style="stroke: #A80036; stroke-width: 1.0;" x1="314" x2="355" y1="213.1377" y2="213.1377"/><polygon fill="#A80036" points="324,209.1377,314,213.1377,324,217.1377,320,213.1377" style="stroke: #A80036; stroke-width: 1.0;"/><text fill="#000000" font-family="sans-serif" font-size="13" lengthAdjust="spacingAndGlyphs" textLength="94" x="320" y="195.2813">handleChildProc</text><polygon fill="#A80036" points="79,240.8921,69,244.8921,79,248.8921,75,244.8921" style="stroke: #A80036; stroke-width: 1.0;"/><line style="stroke: #A80036; stroke-width: 1.0;" x1="73" x2="307" y1="244.8921" y2="244.8921"/><text fill="#000000" font-family="sans-serif" font-size="13" lengthAdjust="spacingAndGlyphs" textLength="56" x="85" y="240.0356">zygoteInit</text><line style="stroke: #A80036; stroke-width: 1.0;" x1="68" x2="110" y1="276.6465" y2="276.6465"/><line style="stroke: #A80036; stroke-width: 1.0;" x1="110" x2="110" y1="276.6465" y2="289.6465"/><line style="stroke: #A80036; stroke-width: 1.0;" x1="69" x2="110" y1="289.6465" y2="289.6465"/><polygon fill="#A80036" points="79,285.6465,69,289.6465,79,293.6465,75,289.6465" style="stroke: #A80036; stroke-width: 1.0;"/><text fill="#000000" font-family="sans-serif" font-size="13" lengthAdjust="spacingAndGlyphs" textLength="89" x="75" y="271.79">nativeZygoteInit</text><polygon fill="#A80036" points="411.5,317.4009,421.5,321.4009,411.5,325.4009,415.5,321.4009" style="stroke: #A80036; stroke-width: 1.0;"/><line style="stroke: #A80036; stroke-width: 1.0;" x1="68" x2="417.5" y1="321.4009" y2="321.4009"/><text fill="#000000" font-family="sans-serif" font-size="13" lengthAdjust="spacingAndGlyphs" textLength="79" x="75" y="316.5444">applicationInit</text><line style="stroke: #A80036; stroke-width: 1.0;" x1="433.5" x2="475.5" y1="353.1553" y2="353.1553"/><line style="stroke: #A80036; stroke-width: 1.0;" x1="475.5" x2="475.5" y1="353.1553" y2="366.1553"/><line style="stroke: #A80036; stroke-width: 1.0;" x1="434.5" x2="475.5" y1="366.1553" y2="366.1553"/><polygon fill="#A80036" points="444.5,362.1553,434.5,366.1553,444.5,370.1553,440.5,366.1553" style="stroke: #A80036; stroke-width: 1.0;"/><text fill="#000000" font-family="sans-serif" font-size="13" lengthAdjust="spacingAndGlyphs" textLength="98" x="440.5" y="348.2988">invokeStaticMain</text><polygon fill="#A80036" points="79,393.9097,69,397.9097,79,401.9097,75,397.9097" style="stroke: #A80036; stroke-width: 1.0;"/><line style="stroke: #A80036; stroke-width: 1.0; stroke-dasharray: 2.0,2.0;" x1="73" x2="422.5" y1="397.9097" y2="397.9097"/><text fill="#000000" font-family="sans-serif" font-size="13" lengthAdjust="spacingAndGlyphs" textLength="126" x="85" y="393.0532">MethodAndArgsCaller</text><polygon fill="#A80036" points="543.5,455.6641,553.5,459.6641,543.5,463.6641,547.5,459.6641" style="stroke: #A80036; stroke-width: 1.0;"/><line style="stroke: #A80036; stroke-width: 1.0;" x1="63" x2="549.5" y1="459.6641" y2="459.6641"/><text fill="#000000" font-family="sans-serif" font-size="13" lengthAdjust="spacingAndGlyphs" textLength="18" x="70" y="454.8076">run</text><polygon fill="#A80036" points="685.5,487.4185,695.5,491.4185,685.5,495.4185,689.5,491.4185" style="stroke: #A80036; stroke-width: 1.0;"/><line style="stroke: #A80036; stroke-width: 1.0;" x1="565.5" x2="691.5" y1="491.4185" y2="491.4185"/><text fill="#000000" font-family="sans-serif" font-size="13" lengthAdjust="spacingAndGlyphs" textLength="28" x="572.5" y="486.562">main</text><!--MD5=[ce684ccfa9dda17e0b781172d509950d]
@startuml
activate ZygoteInit
[o-> ZygoteInit: main
activate ZygoteServer
ZygoteInit -> ZygoteServer: runSelectLoop
ZygoteServer -> ZygoteConnection: runOnce
activate ZygoteConnection
deactivate ZygoteServer
ZygoteConnection -> ZygoteConnection: handleChildProc
ZygoteConnection -> ZygoteInit: zygoteInit
deactivate ZygoteConnection
ZygoteInit -> ZygoteInit: nativeZygoteInit
ZygoteInit -> RuntimeInit: applicationInit
activate RuntimeInit
RuntimeInit -> RuntimeInit: invokeStaticMain
RuntimeInit - -> ZygoteInit: MethodAndArgsCaller
activate MethodAndArgsCaller
deactivate RuntimeInit
ZygoteInit -> MethodAndArgsCaller: run
deactivate ZygoteInit
MethodAndArgsCaller -> ActivityThread: main
activate ActivityThread
deactivate MethodAndArgsCaller
deactivate ActivityThread
@enduml

PlantUML version 1.2020.09(Sun May 10 18:51:06 CST 2020)
(GPL source distribution)
Java Runtime: OpenJDK Runtime Environment
JVM: OpenJDK 64-Bit Server VM
Java Version: 1.8.0_242-release-1644-b01
Operating System: Windows 10
Default Encoding: GBK
Language: zh
Country: CN
--></g></svg>