<?xml version="1.0" encoding="UTF-8" standalone="no"?><svg xmlns="http://www.w3.org/2000/svg" xmlns:xlink="http://www.w3.org/1999/xlink" contentScriptType="application/ecmascript" contentStyleType="text/css" height="516px" preserveAspectRatio="none" style="width:606px;height:516px;" version="1.1" viewBox="0 0 606 516" width="606px" zoomAndPan="magnify"><defs><filter height="300%" id="f107dfcvnnkomm" width="300%" x="-1" y="-1"><feGaussianBlur result="blurOut" stdDeviation="2.0"/><feColorMatrix in="blurOut" result="blurOut2" type="matrix" values="0 0 0 0 0 0 0 0 0 0 0 0 0 0 0 0 0 0 .4 0"/><feOffset dx="4.0" dy="4.0" in="blurOut2" result="blurOut3"/><feBlend in="SourceGraphic" in2="blurOut3" mode="normal"/></filter></defs><g><rect fill="#FFFFFF" filter="url(#f107dfcvnnkomm)" height="380.7896" style="stroke: #A80036; stroke-width: 1.0;" width="10" x="77" y="74.8745"/><rect fill="#FFFFFF" filter="url(#f107dfcvnnkomm)" height="296.2808" style="stroke: #A80036; stroke-width: 1.0;" width="10" x="82" y="159.3833"/><rect fill="#FFFFFF" filter="url(#f107dfcvnnkomm)" height="76.5088" style="stroke: #A80036; stroke-width: 1.0;" width="10" x="268" y="285.6465"/><rect fill="#FFFFFF" filter="url(#f107dfcvnnkomm)" height="93.5088" style="stroke: #A80036; stroke-width: 1.0;" width="10" x="400" y="362.1553"/><rect fill="#FFFFFF" filter="url(#f107dfcvnnkomm)" height="30" style="stroke: #A80036; stroke-width: 1.0;" width="10" x="541" y="425.6641"/><line style="stroke: #A80036; stroke-width: 1.0; stroke-dasharray: 5.0,5.0;" x1="81.5" x2="81.5" y1="41.1201" y2="473.6641"/><line style="stroke: #A80036; stroke-width: 1.0; stroke-dasharray: 5.0,5.0;" x1="273" x2="273" y1="41.1201" y2="473.6641"/><line style="stroke: #A80036; stroke-width: 1.0; stroke-dasharray: 5.0,5.0;" x1="405" x2="405" y1="41.1201" y2="473.6641"/><line style="stroke: #A80036; stroke-width: 1.0; stroke-dasharray: 5.0,5.0;" x1="546" x2="546" y1="41.1201" y2="473.6641"/><rect fill="#FEFECE" filter="url(#f107dfcvnnkomm)" height="33.1201" style="stroke: #A80036; stroke-width: 1.5;" width="75" x="42.5" y="3"/><text fill="#000000" font-family="sans-serif" font-size="14" lengthAdjust="spacingAndGlyphs" textLength="61" x="49.5" y="26.0439">ZygoteInit</text><rect fill="#FEFECE" filter="url(#f107dfcvnnkomm)" height="33.1201" style="stroke: #A80036; stroke-width: 1.5;" width="75" x="42.5" y="472.6641"/><text fill="#000000" font-family="sans-serif" font-size="14" lengthAdjust="spacingAndGlyphs" textLength="61" x="49.5" y="495.708">ZygoteInit</text><rect fill="#FEFECE" filter="url(#f107dfcvnnkomm)" height="33.1201" style="stroke: #A80036; stroke-width: 1.5;" width="84" x="229" y="3"/><text fill="#000000" font-family="sans-serif" font-size="14" lengthAdjust="spacingAndGlyphs" textLength="70" x="236" y="26.0439">RuntimeInit</text><rect fill="#FEFECE" filter="url(#f107dfcvnnkomm)" height="33.1201" style="stroke: #A80036; stroke-width: 1.5;" width="84" x="229" y="472.6641"/><text fill="#000000" font-family="sans-serif" font-size="14" lengthAdjust="spacingAndGlyphs" textLength="70" x="236" y="495.708">RuntimeInit</text><rect fill="#FEFECE" filter="url(#f107dfcvnnkomm)" height="33.1201" style="stroke: #A80036; stroke-width: 1.5;" width="152" x="327" y="3"/><text fill="#000000" font-family="sans-serif" font-size="14" lengthAdjust="spacingAndGlyphs" textLength="138" x="334" y="26.0439">MethodAndArgsCaller</text><rect fill="#FEFECE" filter="url(#f107dfcvnnkomm)" height="33.1201" style="stroke: #A80036; stroke-width: 1.5;" width="152" x="327" y="472.6641"/><text fill="#000000" font-family="sans-serif" font-size="14" lengthAdjust="spacingAndGlyphs" textLength="138" x="334" y="495.708">MethodAndArgsCaller</text><rect fill="#FEFECE" filter="url(#f107dfcvnnkomm)" height="33.1201" style="stroke: #A80036; stroke-width: 1.5;" width="102" x="493" y="3"/><text fill="#000000" font-family="sans-serif" font-size="14" lengthAdjust="spacingAndGlyphs" textLength="88" x="500" y="26.0439">SystemServer</text><rect fill="#FEFECE" filter="url(#f107dfcvnnkomm)" height="33.1201" style="stroke: #A80036; stroke-width: 1.5;" width="102" x="493" y="472.6641"/><text fill="#000000" font-family="sans-serif" font-size="14" lengthAdjust="spacingAndGlyphs" textLength="88" x="500" y="495.708">SystemServer</text><rect fill="#FFFFFF" filter="url(#f107dfcvnnkomm)" height="380.7896" style="stroke: #A80036; stroke-width: 1.0;" width="10" x="77" y="74.8745"/><rect fill="#FFFFFF" filter="url(#f107dfcvnnkomm)" height="296.2808" style="stroke: #A80036; stroke-width: 1.0;" width="10" x="82" y="159.3833"/><rect fill="#FFFFFF" filter="url(#f107dfcvnnkomm)" height="76.5088" style="stroke: #A80036; stroke-width: 1.0;" width="10" x="268" y="285.6465"/><rect fill="#FFFFFF" filter="url(#f107dfcvnnkomm)" height="93.5088" style="stroke: #A80036; stroke-width: 1.0;" width="10" x="400" y="362.1553"/><rect fill="#FFFFFF" filter="url(#f107dfcvnnkomm)" height="30" style="stroke: #A80036; stroke-width: 1.0;" width="10" x="541" y="425.6641"/><ellipse cx="10.5" cy="74.1245" fill="none" rx="4" ry="4" style="stroke: #A80036; stroke-width: 1.5;"/><polygon fill="#A80036" points="65,70.8745,75,74.8745,65,78.8745,69,74.8745" style="stroke: #A80036; stroke-width: 1.0;"/><line style="stroke: #A80036; stroke-width: 1.0;" x1="15" x2="71" y1="74.8745" y2="74.8745"/><text fill="#000000" font-family="sans-serif" font-size="13" lengthAdjust="spacingAndGlyphs" textLength="28" x="18" y="70.0181">main</text><line style="stroke: #A80036; stroke-width: 1.0;" x1="87" x2="129" y1="106.6289" y2="106.6289"/><line style="stroke: #A80036; stroke-width: 1.0;" x1="129" x2="129" y1="106.6289" y2="119.6289"/><line style="stroke: #A80036; stroke-width: 1.0;" x1="88" x2="129" y1="119.6289" y2="119.6289"/><polygon fill="#A80036" points="98,115.6289,88,119.6289,98,123.6289,94,119.6289" style="stroke: #A80036; stroke-width: 1.0;"/><text fill="#000000" font-family="sans-serif" font-size="13" lengthAdjust="spacingAndGlyphs" textLength="107" x="94" y="101.7725">startSystemServer</text><line style="stroke: #A80036; stroke-width: 1.0;" x1="87" x2="134" y1="146.3833" y2="146.3833"/><line style="stroke: #A80036; stroke-width: 1.0;" x1="134" x2="134" y1="146.3833" y2="159.3833"/><line style="stroke: #A80036; stroke-width: 1.0;" x1="93" x2="134" y1="159.3833" y2="159.3833"/><polygon fill="#A80036" points="103,155.3833,93,159.3833,103,163.3833,99,159.3833" style="stroke: #A80036; stroke-width: 1.0;"/><text fill="#000000" font-family="sans-serif" font-size="13" lengthAdjust="spacingAndGlyphs" textLength="167" x="99" y="141.5269">handleSystemServerProcess</text><path d="M8,134.1289 L8,161.1289 L68,161.1289 L68,144.1289 L58,134.1289 L8,134.1289 " fill="#FBFB77" filter="url(#f107dfcvnnkomm)" style="stroke: #A80036; stroke-width: 1.0;"/><path d="M58,134.1289 L58,144.1289 L68,144.1289 L58,134.1289 " fill="#FBFB77" style="stroke: #A80036; stroke-width: 1.0;"/><text fill="#000000" font-family="sans-serif" font-size="13" lengthAdjust="spacingAndGlyphs" textLength="39" x="14" y="154.0269">子进程</text><line style="stroke: #A80036; stroke-width: 1.0;" x1="92" x2="134" y1="196.1377" y2="196.1377"/><line style="stroke: #A80036; stroke-width: 1.0;" x1="134" x2="134" y1="196.1377" y2="209.1377"/><line style="stroke: #A80036; stroke-width: 1.0;" x1="93" x2="134" y1="209.1377" y2="209.1377"/><polygon fill="#A80036" points="103,205.1377,93,209.1377,103,213.1377,99,209.1377" style="stroke: #A80036; stroke-width: 1.0;"/><text fill="#000000" font-family="sans-serif" font-size="13" lengthAdjust="spacingAndGlyphs" textLength="56" x="99" y="191.2813">zygoteInit</text><line style="stroke: #A80036; stroke-width: 1.0;" x1="92" x2="134" y1="240.8921" y2="240.8921"/><line style="stroke: #A80036; stroke-width: 1.0;" x1="134" x2="134" y1="240.8921" y2="253.8921"/><line style="stroke: #A80036; stroke-width: 1.0;" x1="93" x2="134" y1="253.8921" y2="253.8921"/><polygon fill="#A80036" points="103,249.8921,93,253.8921,103,257.8921,99,253.8921" style="stroke: #A80036; stroke-width: 1.0;"/><text fill="#000000" font-family="sans-serif" font-size="13" lengthAdjust="spacingAndGlyphs" textLength="89" x="99" y="236.0356">nativeZygoteInit</text><polygon fill="#A80036" points="256,281.6465,266,285.6465,256,289.6465,260,285.6465" style="stroke: #A80036; stroke-width: 1.0;"/><line style="stroke: #A80036; stroke-width: 1.0;" x1="92" x2="262" y1="285.6465" y2="285.6465"/><text fill="#000000" font-family="sans-serif" font-size="13" lengthAdjust="spacingAndGlyphs" textLength="79" x="99" y="280.79">applicationInit</text><line style="stroke: #A80036; stroke-width: 1.0;" x1="278" x2="320" y1="317.4009" y2="317.4009"/><line style="stroke: #A80036; stroke-width: 1.0;" x1="320" x2="320" y1="317.4009" y2="330.4009"/><line style="stroke: #A80036; stroke-width: 1.0;" x1="279" x2="320" y1="330.4009" y2="330.4009"/><polygon fill="#A80036" points="289,326.4009,279,330.4009,289,334.4009,285,330.4009" style="stroke: #A80036; stroke-width: 1.0;"/><text fill="#000000" font-family="sans-serif" font-size="13" lengthAdjust="spacingAndGlyphs" textLength="98" x="285" y="312.5444">invokeStaticMain</text><polygon fill="#A80036" points="103,358.1553,93,362.1553,103,366.1553,99,362.1553" style="stroke: #A80036; stroke-width: 1.0;"/><line style="stroke: #A80036; stroke-width: 1.0; stroke-dasharray: 2.0,2.0;" x1="97" x2="272" y1="362.1553" y2="362.1553"/><text fill="#000000" font-family="sans-serif" font-size="13" lengthAdjust="spacingAndGlyphs" textLength="126" x="109" y="357.2988">MethodAndArgsCaller</text><polygon fill="#A80036" points="388,389.9097,398,393.9097,388,397.9097,392,393.9097" style="stroke: #A80036; stroke-width: 1.0;"/><line style="stroke: #A80036; stroke-width: 1.0;" x1="92" x2="394" y1="393.9097" y2="393.9097"/><text fill="#000000" font-family="sans-serif" font-size="13" lengthAdjust="spacingAndGlyphs" textLength="18" x="99" y="389.0532">run</text><polygon fill="#A80036" points="529,421.6641,539,425.6641,529,429.6641,533,425.6641" style="stroke: #A80036; stroke-width: 1.0;"/><line style="stroke: #A80036; stroke-width: 1.0;" x1="410" x2="535" y1="425.6641" y2="425.6641"/><text fill="#000000" font-family="sans-serif" font-size="13" lengthAdjust="spacingAndGlyphs" textLength="28" x="417" y="420.8076">main</text><!--MD5=[e2b1a30fffe2620f2a525aa54fe67ae3]
@startuml
[o-> ZygoteInit: main
activate ZygoteInit
ZygoteInit -> ZygoteInit: startSystemServer
ZygoteInit -> ZygoteInit: handleSystemServerProcess
activate ZygoteInit
note left: 子进程
ZygoteInit -> ZygoteInit: zygoteInit
ZygoteInit -> ZygoteInit: nativeZygoteInit
ZygoteInit -> RuntimeInit: applicationInit
activate RuntimeInit
RuntimeInit -> RuntimeInit: invokeStaticMain
RuntimeInit - -> ZygoteInit: MethodAndArgsCaller
deactivate RuntimeInit
activate MethodAndArgsCaller
ZygoteInit -> MethodAndArgsCaller: run
MethodAndArgsCaller -> SystemServer: main
activate SystemServer
deactivate MethodAndArgsCaller
deactivate SystemServer
deactivate ZygoteInit
deactivate ZygoteInit
@enduml

PlantUML version 1.2020.09(Sun May 10 18:51:06 CST 2020)
(GPL source distribution)
Java Runtime: OpenJDK Runtime Environment
JVM: OpenJDK 64-Bit Server VM
Java Version: 1.8.0_242-release-1644-b01
Operating System: Windows 10
Default Encoding: GBK
Language: zh
Country: CN
--></g></svg>