<?xml version="1.0" encoding="UTF-8" standalone="no"?><svg xmlns="http://www.w3.org/2000/svg" xmlns:xlink="http://www.w3.org/1999/xlink" contentScriptType="application/ecmascript" contentStyleType="text/css" height="412px" preserveAspectRatio="none" style="width:489px;height:412px;" version="1.1" viewBox="0 0 489 412" width="489px" zoomAndPan="magnify"><defs><filter height="300%" id="f1v5ajsc9c8hej" width="300%" x="-1" y="-1"><feGaussianBlur result="blurOut" stdDeviation="2.0"/><feColorMatrix in="blurOut" result="blurOut2" type="matrix" values="0 0 0 0 0 0 0 0 0 0 0 0 0 0 0 0 0 0 .4 0"/><feOffset dx="4.0" dy="4.0" in="blurOut2" result="blurOut3"/><feBlend in="SourceGraphic" in2="blurOut3" mode="normal"/></filter></defs><g><rect fill="#FFFFFF" filter="url(#f1v5ajsc9c8hej)" height="61.7544" style="stroke: #A80036; stroke-width: 1.0;" width="10" x="58" y="74.8745"/><rect fill="#FFFFFF" filter="url(#f1v5ajsc9c8hej)" height="91.7544" style="stroke: #A80036; stroke-width: 1.0;" width="10" x="167.5" y="106.6289"/><rect fill="#FFFFFF" filter="url(#f1v5ajsc9c8hej)" height="183.0176" style="stroke: #A80036; stroke-width: 1.0;" width="10" x="276.5" y="168.3833"/><rect fill="#FFFFFF" filter="url(#f1v5ajsc9c8hej)" height="121.2632" style="stroke: #A80036; stroke-width: 1.0;" width="10" x="425.5" y="230.1377"/><line style="stroke: #A80036; stroke-width: 1.0; stroke-dasharray: 5.0,5.0;" x1="63" x2="63" y1="41.1201" y2="369.4009"/><line style="stroke: #A80036; stroke-width: 1.0; stroke-dasharray: 5.0,5.0;" x1="172" x2="172" y1="41.1201" y2="369.4009"/><line style="stroke: #A80036; stroke-width: 1.0; stroke-dasharray: 5.0,5.0;" x1="281" x2="281" y1="41.1201" y2="369.4009"/><line style="stroke: #A80036; stroke-width: 1.0; stroke-dasharray: 5.0,5.0;" x1="430" x2="430" y1="41.1201" y2="369.4009"/><rect fill="#FEFECE" filter="url(#f1v5ajsc9c8hej)" height="33.1201" style="stroke: #A80036; stroke-width: 1.5;" width="76" x="23" y="3"/><text fill="#000000" font-family="sans-serif" font-size="14" lengthAdjust="spacingAndGlyphs" textLength="62" x="30" y="26.0439">app_main</text><rect fill="#FEFECE" filter="url(#f1v5ajsc9c8hej)" height="33.1201" style="stroke: #A80036; stroke-width: 1.5;" width="76" x="23" y="368.4009"/><text fill="#000000" font-family="sans-serif" font-size="14" lengthAdjust="spacingAndGlyphs" textLength="62" x="30" y="391.4448">app_main</text><rect fill="#FEFECE" filter="url(#f1v5ajsc9c8hej)" height="33.1201" style="stroke: #A80036; stroke-width: 1.5;" width="115" x="113" y="3"/><text fill="#000000" font-family="sans-serif" font-size="14" lengthAdjust="spacingAndGlyphs" textLength="101" x="120" y="26.0439">AndroidRuntime</text><rect fill="#FEFECE" filter="url(#f1v5ajsc9c8hej)" height="33.1201" style="stroke: #A80036; stroke-width: 1.5;" width="115" x="113" y="368.4009"/><text fill="#000000" font-family="sans-serif" font-size="14" lengthAdjust="spacingAndGlyphs" textLength="101" x="120" y="391.4448">AndroidRuntime</text><rect fill="#FEFECE" filter="url(#f1v5ajsc9c8hej)" height="33.1201" style="stroke: #A80036; stroke-width: 1.5;" width="75" x="242" y="3"/><text fill="#000000" font-family="sans-serif" font-size="14" lengthAdjust="spacingAndGlyphs" textLength="61" x="249" y="26.0439">ZygoteInit</text><rect fill="#FEFECE" filter="url(#f1v5ajsc9c8hej)" height="33.1201" style="stroke: #A80036; stroke-width: 1.5;" width="75" x="242" y="368.4009"/><text fill="#000000" font-family="sans-serif" font-size="14" lengthAdjust="spacingAndGlyphs" textLength="61" x="249" y="391.4448">ZygoteInit</text><rect fill="#FEFECE" filter="url(#f1v5ajsc9c8hej)" height="33.1201" style="stroke: #A80036; stroke-width: 1.5;" width="99" x="379" y="3"/><text fill="#000000" font-family="sans-serif" font-size="14" lengthAdjust="spacingAndGlyphs" textLength="85" x="386" y="26.0439">ZygoteServer</text><rect fill="#FEFECE" filter="url(#f1v5ajsc9c8hej)" height="33.1201" style="stroke: #A80036; stroke-width: 1.5;" width="99" x="379" y="368.4009"/><text fill="#000000" font-family="sans-serif" font-size="14" lengthAdjust="spacingAndGlyphs" textLength="85" x="386" y="391.4448">ZygoteServer</text><rect fill="#FFFFFF" filter="url(#f1v5ajsc9c8hej)" height="61.7544" style="stroke: #A80036; stroke-width: 1.0;" width="10" x="58" y="74.8745"/><rect fill="#FFFFFF" filter="url(#f1v5ajsc9c8hej)" height="91.7544" style="stroke: #A80036; stroke-width: 1.0;" width="10" x="167.5" y="106.6289"/><rect fill="#FFFFFF" filter="url(#f1v5ajsc9c8hej)" height="183.0176" style="stroke: #A80036; stroke-width: 1.0;" width="10" x="276.5" y="168.3833"/><rect fill="#FFFFFF" filter="url(#f1v5ajsc9c8hej)" height="121.2632" style="stroke: #A80036; stroke-width: 1.0;" width="10" x="425.5" y="230.1377"/><ellipse cx="10.5" cy="74.1245" fill="none" rx="4" ry="4" style="stroke: #A80036; stroke-width: 1.5;"/><polygon fill="#A80036" points="46,70.8745,56,74.8745,46,78.8745,50,74.8745" style="stroke: #A80036; stroke-width: 1.0;"/><line style="stroke: #A80036; stroke-width: 1.0;" x1="15" x2="52" y1="74.8745" y2="74.8745"/><text fill="#000000" font-family="sans-serif" font-size="13" lengthAdjust="spacingAndGlyphs" textLength="28" x="18" y="70.0181">main</text><polygon fill="#A80036" points="155.5,102.6289,165.5,106.6289,155.5,110.6289,159.5,106.6289" style="stroke: #A80036; stroke-width: 1.0;"/><line style="stroke: #A80036; stroke-width: 1.0;" x1="68" x2="161.5" y1="106.6289" y2="106.6289"/><text fill="#000000" font-family="sans-serif" font-size="13" lengthAdjust="spacingAndGlyphs" textLength="26" x="75" y="101.7725">start</text><polygon fill="#A80036" points="264.5,164.3833,274.5,168.3833,264.5,172.3833,268.5,168.3833" style="stroke: #A80036; stroke-width: 1.0;"/><line style="stroke: #A80036; stroke-width: 1.0;" x1="177.5" x2="270.5" y1="168.3833" y2="168.3833"/><text fill="#000000" font-family="sans-serif" font-size="13" lengthAdjust="spacingAndGlyphs" textLength="28" x="184.5" y="163.5269">main</text><polygon fill="#A80036" points="413.5,226.1377,423.5,230.1377,413.5,234.1377,417.5,230.1377" style="stroke: #A80036; stroke-width: 1.0;"/><line style="stroke: #A80036; stroke-width: 1.0;" x1="286.5" x2="419.5" y1="230.1377" y2="230.1377"/><text fill="#000000" font-family="sans-serif" font-size="13" lengthAdjust="spacingAndGlyphs" textLength="120" x="293.5" y="225.2813">registerServerSocket</text><line style="stroke: #A80036; stroke-width: 1.0;" x1="286.5" x2="328.5" y1="261.8921" y2="261.8921"/><line style="stroke: #A80036; stroke-width: 1.0;" x1="328.5" x2="328.5" y1="261.8921" y2="274.8921"/><line style="stroke: #A80036; stroke-width: 1.0;" x1="287.5" x2="328.5" y1="274.8921" y2="274.8921"/><polygon fill="#A80036" points="297.5,270.8921,287.5,274.8921,297.5,278.8921,293.5,274.8921" style="stroke: #A80036; stroke-width: 1.0;"/><text fill="#000000" font-family="sans-serif" font-size="13" lengthAdjust="spacingAndGlyphs" textLength="42" x="293.5" y="257.0356">preload</text><line style="stroke: #A80036; stroke-width: 1.0;" x1="286.5" x2="328.5" y1="306.6465" y2="306.6465"/><line style="stroke: #A80036; stroke-width: 1.0;" x1="328.5" x2="328.5" y1="306.6465" y2="319.6465"/><line style="stroke: #A80036; stroke-width: 1.0;" x1="287.5" x2="328.5" y1="319.6465" y2="319.6465"/><polygon fill="#A80036" points="297.5,315.6465,287.5,319.6465,297.5,323.6465,293.5,319.6465" style="stroke: #A80036; stroke-width: 1.0;"/><text fill="#000000" font-family="sans-serif" font-size="13" lengthAdjust="spacingAndGlyphs" textLength="107" x="293.5" y="301.79">startSystemServer</text><polygon fill="#A80036" points="418.5,347.4009,428.5,351.4009,418.5,355.4009,422.5,351.4009" style="stroke: #A80036; stroke-width: 1.0;"/><line style="stroke: #A80036; stroke-width: 1.0;" x1="281.5" x2="424.5" y1="351.4009" y2="351.4009"/><text fill="#000000" font-family="sans-serif" font-size="13" lengthAdjust="spacingAndGlyphs" textLength="83" x="288.5" y="346.5444">runSelectLoop</text><!--MD5=[38e54e70505775d257c30d9d203e58e9]
@startuml
[o-> app_main: main
activate app_main
app_main -> AndroidRuntime: start
activate AndroidRuntime
deactivate app_main
AndroidRuntime -> ZygoteInit: main
activate ZygoteInit
deactivate AndroidRuntime
ZygoteInit -> ZygoteServer: registerServerSocket
activate ZygoteServer
ZygoteInit -> ZygoteInit: preload
ZygoteInit -> ZygoteInit: startSystemServer
ZygoteInit -> ZygoteServer: runSelectLoop
deactivate ZygoteServer
deactivate ZygoteInit
@enduml

PlantUML version 1.2020.09(Sun May 10 18:51:06 CST 2020)
(GPL source distribution)
Java Runtime: OpenJDK Runtime Environment
JVM: OpenJDK 64-Bit Server VM
Java Version: 1.8.0_242-release-1644-b01
Operating System: Windows 10
Default Encoding: GBK
Language: zh
Country: CN
--></g></svg>